<svg width="24" height="24" viewBox="0 0 24 24" fill="none" xmlns="http://www.w3.org/2000/svg">
<path fill-rule="evenodd" clip-rule="evenodd" d="M10.698 2.79898C11.0605 2.48806 11.5223 2.31714 12 2.31714C12.4776 2.31714 12.9394 2.48806 13.302 2.79898L19.638 8.22898L22.125 10.219C22.2275 10.3011 22.3129 10.4025 22.3763 10.5176C22.4396 10.6327 22.4797 10.7591 22.4941 10.8897C22.5086 11.0202 22.4973 11.1524 22.4607 11.2785C22.4241 11.4047 22.363 11.5224 22.281 11.625C22.1989 11.7275 22.0974 11.8129 21.9823 11.8763C21.8672 11.9396 21.7408 11.9797 21.6103 11.9942C21.4797 12.0087 21.3476 11.9973 21.2214 11.9607C21.0952 11.9241 20.9775 11.8631 20.875 11.781L20 11.081V19C20 19.5304 19.7892 20.0391 19.4142 20.4142C19.0391 20.7893 18.5304 21 18 21H14V16C14 15.4696 13.7892 14.9608 13.4142 14.5858C13.0391 14.2107 12.5304 14 12 14C11.4695 14 10.9608 14.2107 10.5857 14.5858C10.2107 14.9608 9.99995 15.4696 9.99995 16V21H5.99995C5.46952 21 4.96081 20.7893 4.58574 20.4142C4.21067 20.0391 3.99995 19.5304 3.99995 19V11.08L3.12495 11.78C3.02309 11.867 2.90478 11.9326 2.77707 11.973C2.64935 12.0134 2.51482 12.0277 2.38146 12.0151C2.24811 12.0025 2.11865 11.9632 2.00076 11.8996C1.88287 11.836 1.77897 11.7493 1.69521 11.6448C1.61145 11.5403 1.54954 11.42 1.51316 11.2911C1.47679 11.1622 1.46668 11.0272 1.48345 10.8943C1.50022 10.7614 1.54351 10.6333 1.61076 10.5174C1.67802 10.4016 1.76786 10.3004 1.87495 10.22L4.36195 8.22998L10.698 2.79898Z" fill="black"/>
</svg>
