<svg width="24" height="24" viewBox="0 0 24 24" fill="none" xmlns="http://www.w3.org/2000/svg">
<path fill-rule="evenodd" clip-rule="evenodd" d="M5.20001 19.332C4.1894 18.397 3.38335 17.2628 2.83262 16.0009C2.28188 14.7391 1.9984 13.3768 2.00001 12C2.00001 6.477 6.47701 2 12 2C17.523 2 22 6.477 22 12C22.0016 13.3768 21.7181 14.7391 21.1674 16.0009C20.6167 17.2628 19.8106 18.397 18.8 19.332C18.5627 18.3683 18.1235 17.4659 17.5116 16.6844C16.8996 15.903 16.1288 15.2604 15.25 14.799C16.0265 14.1345 16.5806 13.2481 16.8379 12.2591C17.0952 11.27 17.0433 10.2259 16.6891 9.26728C16.3349 8.30867 15.6955 7.4816 14.8569 6.89747C14.0184 6.31334 13.021 6.00018 11.999 6.00018C10.9771 6.00018 9.97964 6.31334 9.14108 6.89747C8.30252 7.4816 7.6631 8.30867 7.30891 9.26728C6.95472 10.2259 6.90277 11.27 7.16008 12.2591C7.41738 13.2481 7.97156 14.1345 8.74801 14.799C7.86961 15.2606 7.09916 15.9033 6.48755 16.6848C5.87594 17.4662 5.4371 18.3684 5.20001 19.332ZM7.01001 20.668C8.52718 21.5433 10.2485 22.0028 12 22C13.817 22 15.52 21.515 16.99 20.668C16.9096 19.3992 16.3489 18.2086 15.422 17.3385C14.495 16.4684 13.2714 15.9841 12 15.9841C10.7286 15.9841 9.50502 16.4684 8.57804 17.3385C7.65107 18.2086 7.09037 19.3992 7.01001 20.668ZM12 8C11.606 8 11.2159 8.0776 10.852 8.22836C10.488 8.37913 10.1573 8.6001 9.87869 8.87868C9.60011 9.15726 9.37913 9.48797 9.22837 9.85195C9.0776 10.2159 9.00001 10.606 9.00001 11C9.00001 11.394 9.0776 11.7841 9.22837 12.1481C9.37913 12.512 9.60011 12.8427 9.87869 13.1213C10.1573 13.3999 10.488 13.6209 10.852 13.7716C11.2159 13.9224 11.606 14 12 14C12.7957 14 13.5587 13.6839 14.1213 13.1213C14.6839 12.5587 15 11.7956 15 11C15 10.2044 14.6839 9.44129 14.1213 8.87868C13.5587 8.31607 12.7957 8 12 8Z" fill="#BCBCBC"/>
</svg>
